<svg xmlns="http://www.w3.org/2000/svg" version="1.1" xmlns:xlink="http://www.w3.org/1999/xlink" xmlns:svgjs="http://svgjs.dev/svgjs" width="100%" height="100%"><svg width="100%" height="100%" viewBox="0 0 1080 1250" version="1.1" xmlns="http://www.w3.org/2000/svg" xmlns:xlink="http://www.w3.org/1999/xlink" xml:space="preserve" xmlns:serif="http://www.serif.com/" style="fill-rule:evenodd;clip-rule:evenodd;">
    <path d="M540,0.68L0,312.93L0,937.37L540,1249.32L1080,936.84L1080,313.98L540,0.68Z" style="fill:#1e262f;fill-rule:nonzero;"></path>
    <path d="M540.56,44.7L39.82,335.79L37.68,914.75L540.56,1205.3L1042.32,915.28L1042.32,336.32L540.56,44.7Z" style="fill:#0986be;fill-rule:nonzero;"></path>
    <path d="M185.88,838.29C194.76,838.29 203.16,840.41 211.08,844.65L203.04,899.73C201.44,910.53 198,918.33 192.72,923.13C187.52,927.93 180.12,930.33 170.52,930.33C166.68,930.33 162.64,929.73 158.4,928.53C154.24,927.33 150.48,925.69 147.12,923.61L152.88,912.09C158.96,915.45 164.72,917.13 170.16,917.13C174.48,917.13 178.04,916.05 180.84,913.89C183.64,911.81 185.48,907.77 186.36,901.77L187.32,895.17C185,897.81 182.4,899.93 179.52,901.53C176.64,903.05 173.52,903.81 170.16,903.81C163.6,903.81 158.48,901.61 154.8,897.21C151.2,892.73 149.4,886.77 149.4,879.33C149.4,872.77 150.64,866.37 153.12,860.13C155.68,853.81 159.68,848.61 165.12,844.53C170.56,840.37 177.48,838.29 185.88,838.29ZM185.52,850.65C181.28,850.65 177.76,852.09 174.96,854.97C172.16,857.85 170.12,861.45 168.84,865.77C167.56,870.09 166.92,874.49 166.92,878.97C166.92,886.97 169.72,890.97 175.32,890.97C179.8,890.97 184.32,887.81 188.88,881.49L193.44,852.09C190.96,851.13 188.32,850.65 185.52,850.65Z" style="fill:#1e262f;fill-rule:nonzero;"></path>
    <path d="M255.24,838.29C264.12,838.29 272.52,840.41 280.44,844.65L272.4,899.73C270.8,910.53 267.36,918.33 262.08,923.13C256.88,927.93 249.48,930.33 239.88,930.33C236.04,930.33 232,929.73 227.76,928.53C223.6,927.33 219.84,925.69 216.48,923.61L222.24,912.09C228.32,915.45 234.08,917.13 239.52,917.13C243.84,917.13 247.4,916.05 250.2,913.89C253,911.81 254.84,907.77 255.72,901.77L256.68,895.17C254.36,897.81 251.76,899.93 248.88,901.53C246,903.05 242.88,903.81 239.52,903.81C232.96,903.81 227.84,901.61 224.16,897.21C220.56,892.73 218.76,886.77 218.76,879.33C218.76,872.77 220,866.37 222.48,860.13C225.04,853.81 229.04,848.61 234.48,844.53C239.92,840.37 246.84,838.29 255.24,838.29ZM254.88,850.65C250.64,850.65 247.12,852.09 244.32,854.97C241.52,857.85 239.48,861.45 238.2,865.77C236.92,870.09 236.28,874.49 236.28,878.97C236.28,886.97 239.08,890.97 244.68,890.97C249.16,890.97 253.68,887.81 258.24,881.49L262.8,852.09C260.32,851.13 257.68,850.65 254.88,850.65Z" style="fill:#1e262f;fill-rule:nonzero;"></path>
    <path d="M316.56,838.29C321.04,838.29 325.2,839.01 329.04,840.45C332.88,841.89 336.28,843.85 339.24,846.33L331.68,855.81C329.44,854.13 327,852.85 324.36,851.97C321.72,851.09 319.12,850.65 316.56,850.65C313.52,850.65 311.16,851.21 309.48,852.33C307.88,853.37 307.08,854.81 307.08,856.65C307.08,857.85 307.44,858.89 308.16,859.77C308.96,860.57 310.16,861.33 311.76,862.05C313.44,862.77 316,863.69 319.44,864.81C325.12,866.57 329.36,869.01 332.16,872.13C334.96,875.17 336.36,879.13 336.36,884.01C336.36,888.17 335.28,891.89 333.12,895.17C330.96,898.45 327.76,901.05 323.52,902.97C319.36,904.81 314.32,905.73 308.4,905.73C303.04,905.73 298.12,904.81 293.64,902.97C289.16,901.05 285.48,898.57 282.6,895.53L291.24,886.53C296.44,891.01 302.24,893.25 308.64,893.25C312.24,893.25 314.92,892.53 316.68,891.09C318.52,889.65 319.44,887.93 319.44,885.93C319.44,884.33 319.08,883.05 318.36,882.09C317.64,881.13 316.4,880.25 314.64,879.45C312.96,878.65 310.32,877.65 306.72,876.45C301.04,874.53 296.88,872.17 294.24,869.37C291.6,866.49 290.28,862.77 290.28,858.21C290.28,854.69 291.28,851.41 293.28,848.37C295.28,845.33 298.24,842.89 302.16,841.05C306.16,839.21 310.96,838.29 316.56,838.29Z" style="fill:#1e262f;fill-rule:nonzero;"></path>
    <path d="M361.56,905.73C356.6,905.73 352.76,904.33 350.04,901.53C347.4,898.73 346.08,894.85 346.08,889.89C346.08,888.45 346.2,887.01 346.44,885.57L352.92,840.21L369.72,840.21L363.72,883.17C363.56,884.77 363.48,885.85 363.48,886.41C363.48,888.57 363.88,890.09 364.68,890.97C365.48,891.77 366.72,892.17 368.4,892.17C370.88,892.17 373.24,891.17 375.48,889.17C377.8,887.09 380.08,884.37 382.32,881.01L388.08,840.21L404.88,840.21L396,903.81L381.36,903.81L381.96,893.85C379,897.69 375.84,900.65 372.48,902.73C369.12,904.73 365.48,905.73 361.56,905.73Z" style="fill:#1e262f;fill-rule:nonzero;"></path>
    <path d="M453.72,838.41C455.88,838.41 458,838.73 460.08,839.37L455.28,855.93C453.52,855.37 451.72,855.09 449.88,855.09C446.2,855.09 443.08,856.65 440.52,859.77C438.04,862.89 435.76,867.41 433.68,873.33L429.36,903.81L412.56,903.81L421.44,840.21L435.96,840.21L435.6,852.33C437.84,847.77 440.52,844.33 443.64,842.01C446.84,839.61 450.2,838.41 453.72,838.41Z" style="fill:#1e262f;fill-rule:nonzero;"></path>
    <path d="M520.32,840.21L491.52,903.81L471.36,903.81L459.72,840.21L477.84,840.21L483.24,890.37L502.44,840.21L520.32,840.21Z" style="fill:#1e262f;fill-rule:nonzero;"></path>
    <path d="M576.48,855.45C576.48,863.53 572.72,869.45 565.2,873.21C557.76,876.89 547.88,879.33 535.56,880.53C535.96,888.77 539.92,892.89 547.44,892.89C550.24,892.89 552.92,892.41 555.48,891.45C558.04,890.49 560.84,889.01 563.88,887.01L570.12,897.33C562.36,902.93 554.12,905.73 545.4,905.73C536.68,905.73 530,903.37 525.36,898.65C520.8,893.85 518.52,887.33 518.52,879.09C518.52,872.69 519.72,866.37 522.12,860.13C524.52,853.89 528.36,848.69 533.64,844.53C538.92,840.37 545.64,838.29 553.8,838.29C561,838.29 566.56,839.93 570.48,843.21C574.48,846.41 576.48,850.49 576.48,855.45ZM536.4,869.73C544.32,869.09 550.12,867.61 553.8,865.29C557.56,862.89 559.44,859.85 559.44,856.17C559.44,854.49 558.88,853.05 557.76,851.85C556.72,850.65 555,850.05 552.6,850.05C548.04,850.05 544.44,851.93 541.8,855.69C539.16,859.45 537.36,864.13 536.4,869.73Z" style="fill:#1e262f;fill-rule:nonzero;"></path>
    <path d="M607.56,840.21L598.68,903.81L581.88,903.81L590.76,840.21L607.56,840.21ZM601.44,827.37C598.64,827.37 596.4,826.53 594.72,824.85C593.04,823.17 592.2,821.05 592.2,818.49C592.2,815.29 593.28,812.65 595.44,810.57C597.6,808.49 600.28,807.45 603.48,807.45C606.28,807.45 608.52,808.29 610.2,809.97C611.88,811.57 612.72,813.69 612.72,816.33C612.72,819.53 611.64,822.17 609.48,824.25C607.32,826.33 604.64,827.37 601.44,827.37Z" style="fill:#1e262f;fill-rule:nonzero;"></path>
    <path d="M633.6,887.85L633.48,889.17C633.48,891.09 634.4,892.05 636.24,892.05C637.28,892.05 638.4,891.85 639.6,891.45L641.88,903.45C638.2,904.97 634.44,905.73 630.6,905.73C626.04,905.73 622.52,904.57 620.04,902.25C617.64,899.85 616.44,896.37 616.44,891.81C616.44,890.53 616.56,889.17 616.8,887.73L627.12,814.89L644.04,812.97L633.6,887.85Z" style="fill:#1e262f;fill-rule:nonzero;"></path>
    <path d="M668.16,887.85L668.04,889.17C668.04,891.09 668.96,892.05 670.8,892.05C671.84,892.05 672.96,891.85 674.16,891.45L676.44,903.45C672.76,904.97 669,905.73 665.16,905.73C660.6,905.73 657.08,904.57 654.6,902.25C652.2,899.85 651,896.37 651,891.81C651,890.53 651.12,889.17 651.36,887.73L661.68,814.89L678.6,812.97L668.16,887.85Z" style="fill:#1e262f;fill-rule:nonzero;"></path>
    <path d="M719.64,838.29C728.44,838.29 736.8,840.41 744.72,844.65L738.72,886.41C738.56,887.85 738.48,888.81 738.48,889.29C738.48,890.57 738.72,891.61 739.2,892.41C739.76,893.13 740.68,893.77 741.96,894.33L737.16,905.49C729.32,904.69 724.68,901.17 723.24,894.93C718.04,902.13 711.72,905.73 704.28,905.73C697.72,905.73 692.64,903.49 689.04,899.01C685.44,894.45 683.64,888.33 683.64,880.65C683.64,874.01 684.88,867.45 687.36,860.97C689.84,854.49 693.76,849.09 699.12,844.77C704.56,840.45 711.4,838.29 719.64,838.29ZM719.28,850.65C715.12,850.65 711.68,852.17 708.96,855.21C706.24,858.25 704.24,862.09 702.96,866.73C701.76,871.29 701.16,875.93 701.16,880.65C701.16,888.89 703.88,893.01 709.32,893.01C711.8,893.01 714.08,892.21 716.16,890.61C718.24,889.01 720.36,886.65 722.52,883.53L727.08,852.09C724.76,851.13 722.16,850.65 719.28,850.65Z" style="fill:#1e262f;fill-rule:nonzero;"></path>
    <path d="M796.92,838.29C801.48,838.29 805.04,839.65 807.6,842.37C810.24,845.09 811.56,848.89 811.56,853.77C811.56,855.05 811.44,856.49 811.2,858.09L804.84,903.81L788.04,903.81L794.04,861.21C794.2,859.61 794.28,858.61 794.28,858.21C794.28,856.05 793.88,854.53 793.08,853.65C792.28,852.77 791.12,852.33 789.6,852.33C784.72,852.33 779.56,857.57 774.12,868.05L769.08,903.81L752.28,903.81L761.16,840.21L775.68,840.21L775.2,851.73C778.08,847.49 781.36,844.21 785.04,841.89C788.72,839.49 792.68,838.29 796.92,838.29Z" style="fill:#1e262f;fill-rule:nonzero;"></path>
    <path d="M855.6,838.29C863.52,838.29 870.16,840.89 875.52,846.09L867.12,856.05C865.36,854.45 863.56,853.33 861.72,852.69C859.96,851.97 857.96,851.61 855.72,851.61C849.56,851.61 845.12,854.45 842.4,860.13C839.76,865.81 838.44,872.21 838.44,879.33C838.44,883.89 839.36,887.17 841.2,889.17C843.04,891.09 845.68,892.05 849.12,892.05C851.36,892.05 853.44,891.69 855.36,890.97C857.36,890.25 859.64,889.09 862.2,887.49L868.56,898.65C861.76,903.37 854.6,905.73 847.08,905.73C838.84,905.73 832.4,903.33 827.76,898.53C823.12,893.65 820.8,887.01 820.8,878.61C820.8,872.53 822,866.41 824.4,860.25C826.88,854.01 830.72,848.81 835.92,844.65C841.12,840.41 847.68,838.29 855.6,838.29Z" style="fill:#1e262f;fill-rule:nonzero;"></path>
    <path d="M932.88,855.45C932.88,863.53 929.12,869.45 921.6,873.21C914.16,876.89 904.28,879.33 891.96,880.53C892.36,888.77 896.32,892.89 903.84,892.89C906.64,892.89 909.32,892.41 911.88,891.45C914.44,890.49 917.24,889.01 920.28,887.01L926.52,897.33C918.76,902.93 910.52,905.73 901.8,905.73C893.08,905.73 886.4,903.37 881.76,898.65C877.2,893.85 874.92,887.33 874.92,879.09C874.92,872.69 876.12,866.37 878.52,860.13C880.92,853.89 884.76,848.69 890.04,844.53C895.32,840.37 902.04,838.29 910.2,838.29C917.4,838.29 922.96,839.93 926.88,843.21C930.88,846.41 932.88,850.49 932.88,855.45ZM892.8,869.73C900.72,869.09 906.52,867.61 910.2,865.29C913.96,862.89 915.84,859.85 915.84,856.17C915.84,854.49 915.28,853.05 914.16,851.85C913.12,850.65 911.4,850.05 909,850.05C904.44,850.05 900.84,851.93 898.2,855.69C895.56,859.45 893.76,864.13 892.8,869.73Z" style="fill:#1e262f;fill-rule:nonzero;"></path>
    <g id="SvgjsG1001">
        <rect x="152.185" y="771.063" width="38.778" height="18.418" style="fill:#fff;stroke:#0986be;stroke-width:5.5px;"></rect>
        <rect x="190.962" y="752.645" width="38.778" height="18.418" style="fill:#fff;stroke:#0986be;stroke-width:5.5px;"></rect>
        <rect x="190.962" y="771.063" width="38.778" height="18.418" style="fill:#fff;stroke:#0986be;stroke-width:5.5px;"></rect>
        <rect x="229.74" y="771.063" width="38.778" height="18.418" style="fill:#fff;stroke:#0986be;stroke-width:5.5px;"></rect>
        <rect x="229.74" y="752.645" width="38.778" height="18.418" style="fill:#fff;stroke:#0986be;stroke-width:5.5px;"></rect>
        <rect x="229.74" y="734.259" width="38.778" height="18.418" style="fill:#fff;stroke:#0986be;stroke-width:5.5px;"></rect>
        <rect x="229.74" y="715.841" width="38.778" height="18.418" style="fill:#fff;stroke:#0986be;stroke-width:5.5px;"></rect>
        <rect x="268.517" y="734.259" width="38.778" height="18.418" style="fill:#fff;stroke:#0986be;stroke-width:5.5px;"></rect>
        <rect x="268.517" y="715.841" width="38.778" height="18.418" style="fill:#fff;stroke:#0986be;stroke-width:5.5px;"></rect>
        <rect x="268.517" y="697.455" width="38.778" height="18.418" style="fill:#fff;stroke:#0986be;stroke-width:5.5px;"></rect>
        <rect x="268.517" y="771.063" width="38.778" height="18.418" style="fill:#fff;stroke:#0986be;stroke-width:5.5px;"></rect>
        <rect x="268.517" y="679.037" width="38.778" height="18.418" style="fill:#fff;stroke:#0986be;stroke-width:5.5px;"></rect>
        <rect x="268.517" y="660.651" width="38.778" height="18.418" style="fill:#fff;stroke:#0986be;stroke-width:5.5px;"></rect>
        <rect x="268.517" y="642.233" width="38.778" height="18.418" style="fill:#fff;stroke:#0986be;stroke-width:5.5px;"></rect>
        <rect x="268.517" y="623.847" width="38.778" height="18.418" style="fill:#fff;stroke:#0986be;stroke-width:5.5px;"></rect>
        <rect x="268.517" y="752.645" width="38.778" height="18.418" style="fill:#fff;stroke:#0986be;stroke-width:5.5px;"></rect>
        <rect x="268.517" y="605.428" width="38.778" height="18.418" style="fill:#fff;stroke:#0986be;stroke-width:5.5px;"></rect>
        <rect x="307.295" y="771.063" width="38.778" height="18.418" style="fill:#fff;stroke:#0986be;stroke-width:5.5px;"></rect>
        <rect x="307.295" y="752.645" width="38.778" height="18.418" style="fill:#fff;stroke:#0986be;stroke-width:5.5px;"></rect>
        <rect x="307.295" y="734.259" width="38.778" height="18.418" style="fill:#fff;stroke:#0986be;stroke-width:5.5px;"></rect>
        <rect x="307.295" y="715.841" width="38.778" height="18.418" style="fill:#fff;stroke:#0986be;stroke-width:5.5px;"></rect>
        <rect x="307.295" y="697.455" width="38.778" height="18.418" style="fill:#fff;stroke:#0986be;stroke-width:5.5px;"></rect>
        <rect x="307.295" y="679.037" width="38.778" height="18.418" style="fill:#fff;stroke:#0986be;stroke-width:5.5px;"></rect>
        <rect x="307.295" y="660.651" width="38.778" height="18.418" style="fill:#fff;stroke:#0986be;stroke-width:5.5px;"></rect>
        <rect x="307.295" y="642.233" width="38.778" height="18.418" style="fill:#fff;stroke:#0986be;stroke-width:5.5px;"></rect>
        <rect x="307.295" y="623.847" width="38.778" height="18.418" style="fill:#fff;stroke:#0986be;stroke-width:5.5px;"></rect>
        <rect x="307.295" y="605.428" width="38.778" height="18.418" style="fill:#fff;stroke:#0986be;stroke-width:5.5px;"></rect>
        <rect x="307.295" y="587.042" width="38.778" height="18.418" style="fill:#fff;stroke:#0986be;stroke-width:5.5px;"></rect>
        <rect x="307.295" y="568.624" width="38.778" height="18.418" style="fill:#fff;stroke:#0986be;stroke-width:5.5px;"></rect>
        <rect x="307.295" y="550.238" width="38.778" height="18.418" style="fill:#fff;stroke:#0986be;stroke-width:5.5px;"></rect>
        <rect x="307.295" y="531.82" width="38.778" height="18.418" style="fill:#fff;stroke:#0986be;stroke-width:5.5px;"></rect>
        <rect x="307.295" y="513.434" width="38.778" height="18.418" style="fill:#fff;stroke:#0986be;stroke-width:5.5px;"></rect>
        <rect x="307.295" y="495.016" width="38.778" height="18.418" style="fill:#fff;stroke:#0986be;stroke-width:5.5px;"></rect>
        <rect x="307.295" y="476.63" width="38.778" height="18.418" style="fill:#fff;stroke:#0986be;stroke-width:5.5px;"></rect>
        <rect x="307.295" y="458.212" width="38.778" height="18.418" style="fill:#fff;stroke:#0986be;stroke-width:5.5px;"></rect>
        <rect x="307.295" y="439.826" width="38.778" height="18.418" style="fill:#fff;stroke:#0986be;stroke-width:5.5px;"></rect>
        <rect x="307.295" y="421.408" width="38.778" height="18.418" style="fill:#fff;stroke:#0986be;stroke-width:5.5px;"></rect>
        <rect x="307.295" y="403.022" width="38.778" height="18.418" style="fill:#fff;stroke:#0986be;stroke-width:5.5px;"></rect>
        <rect x="307.295" y="384.603" width="38.778" height="18.418" style="fill:#fff;stroke:#0986be;stroke-width:5.5px;"></rect>
        <rect x="307.295" y="366.218" width="38.778" height="18.418" style="fill:#fff;stroke:#0986be;stroke-width:5.5px;"></rect>
        <rect x="307.295" y="347.799" width="38.778" height="18.418" style="fill:#fff;stroke:#0986be;stroke-width:5.5px;"></rect>
        <rect x="307.295" y="329.413" width="38.778" height="18.418" style="fill:#fff;stroke:#0986be;stroke-width:5.5px;"></rect>
        <rect x="307.295" y="310.995" width="38.778" height="18.418" style="fill:#fff;stroke:#0986be;stroke-width:5.5px;"></rect>
        <rect x="307.295" y="292.609" width="38.778" height="18.418" style="fill:#fff;stroke:#0986be;stroke-width:5.5px;"></rect>
        <rect x="346.073" y="771.063" width="38.778" height="18.418" style="fill:#fff;stroke:#0986be;stroke-width:5.5px;"></rect>
        <rect x="346.073" y="458.212" width="38.778" height="18.418" style="fill:#fff;stroke:#0986be;stroke-width:5.5px;"></rect>
        <rect x="346.073" y="439.826" width="38.778" height="18.418" style="fill:#fff;stroke:#0986be;stroke-width:5.5px;"></rect>
        <rect x="346.073" y="421.408" width="38.778" height="18.418" style="fill:#fff;stroke:#0986be;stroke-width:5.5px;"></rect>
        <rect x="346.073" y="752.645" width="38.778" height="18.418" style="fill:#fff;stroke:#0986be;stroke-width:5.5px;"></rect>
        <rect x="346.073" y="403.022" width="38.778" height="18.418" style="fill:#fff;stroke:#0986be;stroke-width:5.5px;"></rect>
        <rect x="346.073" y="384.603" width="38.778" height="18.418" style="fill:#fff;stroke:#0986be;stroke-width:5.5px;"></rect>
        <rect x="346.073" y="366.218" width="38.778" height="18.418" style="fill:#fff;stroke:#0986be;stroke-width:5.5px;"></rect>
        <rect x="346.073" y="347.799" width="38.778" height="18.418" style="fill:#fff;stroke:#0986be;stroke-width:5.5px;"></rect>
        <rect x="346.073" y="734.259" width="38.778" height="18.418" style="fill:#fff;stroke:#0986be;stroke-width:5.5px;"></rect>
        <rect x="346.073" y="715.841" width="38.778" height="18.418" style="fill:#fff;stroke:#0986be;stroke-width:5.5px;"></rect>
        <rect x="346.073" y="697.455" width="38.778" height="18.418" style="fill:#fff;stroke:#0986be;stroke-width:5.5px;"></rect>
        <rect x="346.073" y="679.037" width="38.778" height="18.418" style="fill:#fff;stroke:#0986be;stroke-width:5.5px;"></rect>
        <rect x="346.073" y="329.413" width="38.778" height="18.418" style="fill:#fff;stroke:#0986be;stroke-width:5.5px;"></rect>
        <rect x="346.073" y="310.995" width="38.778" height="18.418" style="fill:#fff;stroke:#0986be;stroke-width:5.5px;"></rect>
        <rect x="346.073" y="292.609" width="38.778" height="18.418" style="fill:#fff;stroke:#0986be;stroke-width:5.5px;"></rect>
        <rect x="346.073" y="660.651" width="38.778" height="18.418" style="fill:#fff;stroke:#0986be;stroke-width:5.5px;"></rect>
        <rect x="346.073" y="642.233" width="38.778" height="18.418" style="fill:#fff;stroke:#0986be;stroke-width:5.5px;"></rect>
        <rect x="346.073" y="623.847" width="38.778" height="18.418" style="fill:#fff;stroke:#0986be;stroke-width:5.5px;"></rect>
        <rect x="346.073" y="274.191" width="38.778" height="18.418" style="fill:#fff;stroke:#0986be;stroke-width:5.5px;"></rect>
        <rect x="346.073" y="255.805" width="38.778" height="18.418" style="fill:#fff;stroke:#0986be;stroke-width:5.5px;"></rect>
        <rect x="346.073" y="237.387" width="38.778" height="18.418" style="fill:#fff;stroke:#0986be;stroke-width:5.5px;"></rect>
        <rect x="346.073" y="605.428" width="38.778" height="18.418" style="fill:#fff;stroke:#0986be;stroke-width:5.5px;"></rect>
        <rect x="346.073" y="587.042" width="38.778" height="18.418" style="fill:#fff;stroke:#0986be;stroke-width:5.5px;"></rect>
        <rect x="346.073" y="568.624" width="38.778" height="18.418" style="fill:#fff;stroke:#0986be;stroke-width:5.5px;"></rect>
        <rect x="346.073" y="550.238" width="38.778" height="18.418" style="fill:#fff;stroke:#0986be;stroke-width:5.5px;"></rect>
        <rect x="346.073" y="530.906" width="38.778" height="18.418" style="fill:#fff;stroke:#0986be;stroke-width:5.5px;"></rect>
        <rect x="346.073" y="513.434" width="38.778" height="18.418" style="fill:#fff;stroke:#0986be;stroke-width:5.5px;"></rect>
        <rect x="346.073" y="495.016" width="38.778" height="18.418" style="fill:#fff;stroke:#0986be;stroke-width:5.5px;"></rect>
        <rect x="346.073" y="476.63" width="38.778" height="18.418" style="fill:#fff;stroke:#0986be;stroke-width:5.5px;"></rect>
        <rect x="384.85" y="421.408" width="38.778" height="18.418" style="fill:#fff;stroke:#0986be;stroke-width:5.5px;"></rect>
        <rect x="384.85" y="403.022" width="38.778" height="18.418" style="fill:#fff;stroke:#0986be;stroke-width:5.5px;"></rect>
        <rect x="384.85" y="752.645" width="38.778" height="18.418" style="fill:#fff;stroke:#0986be;stroke-width:5.5px;"></rect>
        <rect x="384.85" y="771.063" width="38.778" height="18.418" style="fill:#fff;stroke:#0986be;stroke-width:5.5px;"></rect>
        <rect x="384.85" y="660.651" width="38.778" height="18.418" style="fill:#fff;stroke:#0986be;stroke-width:5.5px;"></rect>
        <rect x="384.85" y="642.233" width="38.778" height="18.418" style="fill:#fff;stroke:#0986be;stroke-width:5.5px;"></rect>
        <rect x="384.85" y="623.847" width="38.778" height="18.418" style="fill:#fff;stroke:#0986be;stroke-width:5.5px;"></rect>
        <rect x="384.85" y="384.603" width="38.778" height="18.418" style="fill:#fff;stroke:#0986be;stroke-width:5.5px;"></rect>
        <rect x="384.85" y="605.428" width="38.778" height="18.418" style="fill:#fff;stroke:#0986be;stroke-width:5.5px;"></rect>
        <rect x="384.85" y="587.042" width="38.778" height="18.418" style="fill:#fff;stroke:#0986be;stroke-width:5.5px;"></rect>
        <rect x="384.85" y="568.624" width="38.778" height="18.418" style="fill:#fff;stroke:#0986be;stroke-width:5.5px;"></rect>
        <rect x="384.85" y="550.238" width="38.778" height="18.418" style="fill:#fff;stroke:#0986be;stroke-width:5.5px;"></rect>
        <rect x="384.85" y="734.259" width="38.778" height="18.418" style="fill:#fff;stroke:#0986be;stroke-width:5.5px;"></rect>
        <rect x="384.85" y="715.841" width="38.778" height="18.418" style="fill:#fff;stroke:#0986be;stroke-width:5.5px;"></rect>
        <rect x="384.85" y="531.82" width="38.778" height="18.418" style="fill:#fff;stroke:#0986be;stroke-width:5.5px;"></rect>
        <rect x="384.85" y="513.434" width="38.778" height="18.418" style="fill:#fff;stroke:#0986be;stroke-width:5.5px;"></rect>
        <rect x="384.85" y="495.016" width="38.778" height="18.418" style="fill:#fff;stroke:#0986be;stroke-width:5.5px;"></rect>
        <rect x="384.85" y="476.63" width="38.778" height="18.418" style="fill:#fff;stroke:#0986be;stroke-width:5.5px;"></rect>
        <rect x="384.85" y="697.455" width="38.778" height="18.418" style="fill:#fff;stroke:#0986be;stroke-width:5.5px;"></rect>
        <rect x="384.85" y="458.212" width="38.778" height="18.418" style="fill:#fff;stroke:#0986be;stroke-width:5.5px;"></rect>
        <rect x="384.85" y="439.826" width="38.778" height="18.418" style="fill:#fff;stroke:#0986be;stroke-width:5.5px;"></rect>
        <rect x="384.85" y="679.037" width="38.778" height="18.418" style="fill:#fff;stroke:#0986be;stroke-width:5.5px;"></rect>
        <rect x="423.628" y="752.645" width="38.778" height="18.418" style="fill:#fff;stroke:#0986be;stroke-width:5.5px;"></rect>
        <rect x="423.628" y="771.063" width="38.778" height="18.418" style="fill:#fff;stroke:#0986be;stroke-width:5.5px;"></rect>
        <rect x="423.628" y="734.259" width="38.778" height="18.418" style="fill:#fff;stroke:#0986be;stroke-width:5.5px;"></rect>
        <rect x="423.628" y="679.037" width="38.778" height="18.418" style="fill:#fff;stroke:#0986be;stroke-width:5.5px;"></rect>
        <rect x="423.628" y="660.651" width="38.778" height="18.418" style="fill:#fff;stroke:#0986be;stroke-width:5.5px;"></rect>
        <rect x="423.628" y="715.841" width="38.778" height="18.418" style="fill:#fff;stroke:#0986be;stroke-width:5.5px;"></rect>
        <rect x="423.628" y="642.233" width="38.778" height="18.418" style="fill:#fff;stroke:#0986be;stroke-width:5.5px;"></rect>
        <rect x="423.628" y="697.455" width="38.778" height="18.418" style="fill:#fff;stroke:#0986be;stroke-width:5.5px;"></rect>
        <rect x="462.406" y="771.063" width="38.778" height="18.418" style="fill:#fff;stroke:#0986be;stroke-width:5.5px;"></rect>
        <rect x="462.406" y="752.645" width="38.778" height="18.418" style="fill:#fff;stroke:#0986be;stroke-width:5.5px;"></rect>
        <rect x="462.406" y="734.259" width="38.778" height="18.418" style="fill:#fff;stroke:#0986be;stroke-width:5.5px;"></rect>
        <rect x="462.406" y="715.841" width="38.778" height="18.418" style="fill:#fff;stroke:#0986be;stroke-width:5.5px;"></rect>
        <rect x="462.406" y="697.455" width="38.778" height="18.418" style="fill:#fff;stroke:#0986be;stroke-width:5.5px;"></rect>
        <rect x="462.406" y="679.037" width="38.778" height="18.418" style="fill:#fff;stroke:#0986be;stroke-width:5.5px;"></rect>
        <rect x="462.406" y="660.651" width="38.778" height="18.418" style="fill:#fff;stroke:#0986be;stroke-width:5.5px;"></rect>
        <rect x="462.406" y="642.233" width="38.778" height="18.418" style="fill:#fff;stroke:#0986be;stroke-width:5.5px;"></rect>
        <rect x="462.406" y="623.847" width="38.778" height="18.418" style="fill:#fff;stroke:#0986be;stroke-width:5.5px;"></rect>
        <rect x="501.183" y="771.063" width="38.778" height="18.418" style="fill:#fff;stroke:#0986be;stroke-width:5.5px;"></rect>
        <rect x="501.183" y="752.645" width="38.778" height="18.418" style="fill:#fff;stroke:#0986be;stroke-width:5.5px;"></rect>
        <rect x="539.961" y="771.063" width="38.778" height="18.418" style="fill:#fff;stroke:#0986be;stroke-width:5.5px;"></rect>
        <rect x="539.961" y="752.645" width="38.778" height="18.418" style="fill:#fff;stroke:#0986be;stroke-width:5.5px;"></rect>
        <rect x="539.961" y="734.259" width="38.778" height="18.418" style="fill:#fff;stroke:#0986be;stroke-width:5.5px;"></rect>
        <rect x="539.961" y="715.841" width="38.778" height="18.418" style="fill:#fff;stroke:#0986be;stroke-width:5.5px;"></rect>
        <rect x="578.738" y="771.063" width="38.778" height="18.418" style="fill:#fff;stroke:#0986be;stroke-width:5.5px;"></rect>
        <rect x="578.738" y="752.645" width="38.778" height="18.418" style="fill:#fff;stroke:#0986be;stroke-width:5.5px;"></rect>
        <rect x="578.738" y="734.259" width="38.778" height="18.418" style="fill:#fff;stroke:#0986be;stroke-width:5.5px;"></rect>
        <rect x="578.738" y="715.841" width="38.778" height="18.418" style="fill:#fff;stroke:#0986be;stroke-width:5.5px;"></rect>
        <rect x="578.738" y="697.455" width="38.778" height="18.418" style="fill:#fff;stroke:#0986be;stroke-width:5.5px;"></rect>
        <rect x="578.738" y="679.037" width="38.778" height="18.418" style="fill:#fff;stroke:#0986be;stroke-width:5.5px;"></rect>
        <rect x="617.516" y="771.063" width="38.778" height="18.418" style="fill:#fff;stroke:#0986be;stroke-width:5.5px;"></rect>
        <rect x="617.516" y="752.645" width="38.778" height="18.418" style="fill:#fff;stroke:#0986be;stroke-width:5.5px;"></rect>
        <rect x="617.516" y="734.259" width="38.778" height="18.418" style="fill:#fff;stroke:#0986be;stroke-width:5.5px;"></rect>
        <rect x="617.516" y="715.841" width="38.778" height="18.418" style="fill:#fff;stroke:#0986be;stroke-width:5.5px;"></rect>
        <rect x="617.516" y="697.455" width="38.778" height="18.418" style="fill:#fff;stroke:#0986be;stroke-width:5.5px;"></rect>
        <rect x="617.516" y="679.037" width="38.778" height="18.418" style="fill:#fff;stroke:#0986be;stroke-width:5.5px;"></rect>
        <rect x="617.516" y="660.651" width="38.778" height="18.418" style="fill:#fff;stroke:#0986be;stroke-width:5.5px;"></rect>
        <rect x="617.516" y="642.233" width="38.778" height="18.418" style="fill:#fff;stroke:#0986be;stroke-width:5.5px;"></rect>
        <rect x="617.516" y="623.847" width="38.778" height="18.418" style="fill:#fff;stroke:#0986be;stroke-width:5.5px;"></rect>
        <rect x="617.516" y="605.428" width="38.778" height="18.418" style="fill:#fff;stroke:#0986be;stroke-width:5.5px;"></rect>
        <rect x="617.516" y="587.042" width="38.778" height="18.418" style="fill:#fff;stroke:#0986be;stroke-width:5.5px;"></rect>
        <rect x="617.516" y="568.624" width="38.778" height="18.418" style="fill:#fff;stroke:#0986be;stroke-width:5.5px;"></rect>
        <rect x="617.516" y="550.238" width="38.778" height="18.418" style="fill:#fff;stroke:#0986be;stroke-width:5.5px;"></rect>
        <rect x="617.516" y="531.82" width="38.778" height="18.418" style="fill:#fff;stroke:#0986be;stroke-width:5.5px;"></rect>
        <rect x="617.516" y="513.434" width="38.778" height="18.418" style="fill:#fff;stroke:#0986be;stroke-width:5.5px;"></rect>
        <rect x="617.516" y="495.016" width="38.778" height="18.418" style="fill:#fff;stroke:#0986be;stroke-width:5.5px;"></rect>
        <rect x="617.516" y="476.63" width="38.778" height="18.418" style="fill:#fff;stroke:#0986be;stroke-width:5.5px;"></rect>
        <rect x="617.516" y="458.212" width="38.778" height="18.418" style="fill:#fff;stroke:#0986be;stroke-width:5.5px;"></rect>
        <rect x="656.294" y="752.645" width="38.778" height="18.418" style="fill:#fff;stroke:#0986be;stroke-width:5.5px;"></rect>
        <rect x="656.294" y="734.259" width="38.778" height="18.418" style="fill:#fff;stroke:#0986be;stroke-width:5.5px;"></rect>
        <rect x="656.294" y="715.841" width="38.778" height="18.418" style="fill:#fff;stroke:#0986be;stroke-width:5.5px;"></rect>
        <rect x="656.294" y="697.455" width="38.778" height="18.418" style="fill:#fff;stroke:#0986be;stroke-width:5.5px;"></rect>
        <rect x="656.294" y="679.037" width="38.778" height="18.418" style="fill:#fff;stroke:#0986be;stroke-width:5.5px;"></rect>
        <rect x="656.294" y="660.651" width="38.778" height="18.418" style="fill:#fff;stroke:#0986be;stroke-width:5.5px;"></rect>
        <rect x="656.294" y="642.233" width="38.778" height="18.418" style="fill:#fff;stroke:#0986be;stroke-width:5.5px;"></rect>
        <rect x="656.294" y="623.847" width="38.778" height="18.418" style="fill:#fff;stroke:#0986be;stroke-width:5.5px;"></rect>
        <rect x="656.294" y="605.428" width="38.778" height="18.418" style="fill:#fff;stroke:#0986be;stroke-width:5.5px;"></rect>
        <rect x="656.294" y="771.063" width="38.778" height="18.418" style="fill:#fff;stroke:#0986be;stroke-width:5.5px;"></rect>
        <rect x="656.294" y="587.042" width="38.778" height="18.418" style="fill:#fff;stroke:#0986be;stroke-width:5.5px;"></rect>
        <rect x="656.294" y="568.624" width="38.778" height="18.418" style="fill:#fff;stroke:#0986be;stroke-width:5.5px;"></rect>
        <rect x="656.294" y="550.238" width="38.778" height="18.418" style="fill:#fff;stroke:#0986be;stroke-width:5.5px;"></rect>
        <rect x="656.294" y="531.82" width="38.778" height="18.418" style="fill:#fff;stroke:#0986be;stroke-width:5.5px;"></rect>
        <rect x="656.294" y="513.434" width="38.778" height="18.418" style="fill:#fff;stroke:#0986be;stroke-width:5.5px;"></rect>
        <rect x="656.294" y="495.016" width="38.778" height="18.418" style="fill:#fff;stroke:#0986be;stroke-width:5.5px;"></rect>
        <rect x="656.294" y="476.63" width="38.778" height="18.418" style="fill:#fff;stroke:#0986be;stroke-width:5.5px;"></rect>
        <rect x="656.294" y="458.212" width="38.778" height="18.418" style="fill:#fff;stroke:#0986be;stroke-width:5.5px;"></rect>
        <rect x="656.294" y="439.826" width="38.778" height="18.418" style="fill:#fff;stroke:#0986be;stroke-width:5.5px;"></rect>
        <rect x="656.294" y="421.408" width="38.778" height="18.418" style="fill:#fff;stroke:#0986be;stroke-width:5.5px;"></rect>
        <rect x="656.294" y="403.022" width="38.778" height="18.418" style="fill:#fff;stroke:#0986be;stroke-width:5.5px;"></rect>
        <rect x="656.294" y="384.603" width="38.778" height="18.418" style="fill:#fff;stroke:#0986be;stroke-width:5.5px;"></rect>
        <rect x="656.294" y="366.218" width="38.778" height="18.418" style="fill:#fff;stroke:#0986be;stroke-width:5.5px;"></rect>
        <rect x="656.294" y="347.799" width="38.778" height="18.418" style="fill:#fff;stroke:#0986be;stroke-width:5.5px;"></rect>
        <rect x="656.294" y="329.413" width="38.778" height="18.418" style="fill:#fff;stroke:#0986be;stroke-width:5.5px;"></rect>
        <rect x="656.294" y="310.995" width="38.778" height="18.418" style="fill:#fff;stroke:#0986be;stroke-width:5.5px;"></rect>
        <rect x="656.294" y="292.609" width="38.778" height="18.418" style="fill:#fff;stroke:#0986be;stroke-width:5.5px;"></rect>
        <rect x="656.294" y="274.191" width="38.778" height="18.418" style="fill:#fff;stroke:#0986be;stroke-width:5.5px;"></rect>
        <rect x="656.294" y="255.805" width="38.778" height="18.418" style="fill:#fff;stroke:#0986be;stroke-width:5.5px;"></rect>
        <rect x="695.071" y="715.841" width="38.778" height="18.418" style="fill:#fff;stroke:#0986be;stroke-width:5.5px;"></rect>
        <rect x="695.071" y="697.455" width="38.778" height="18.418" style="fill:#fff;stroke:#0986be;stroke-width:5.5px;"></rect>
        <rect x="695.071" y="679.037" width="38.778" height="18.418" style="fill:#fff;stroke:#0986be;stroke-width:5.5px;"></rect>
        <rect x="695.071" y="660.651" width="38.778" height="18.418" style="fill:#fff;stroke:#0986be;stroke-width:5.5px;"></rect>
        <rect x="695.071" y="642.233" width="38.778" height="18.418" style="fill:#fff;stroke:#0986be;stroke-width:5.5px;"></rect>
        <rect x="695.071" y="623.847" width="38.778" height="18.418" style="fill:#fff;stroke:#0986be;stroke-width:5.5px;"></rect>
        <rect x="695.071" y="605.428" width="38.778" height="18.418" style="fill:#fff;stroke:#0986be;stroke-width:5.5px;"></rect>
        <rect x="695.071" y="587.042" width="38.778" height="18.418" style="fill:#fff;stroke:#0986be;stroke-width:5.5px;"></rect>
        <rect x="695.071" y="568.624" width="38.778" height="18.418" style="fill:#fff;stroke:#0986be;stroke-width:5.5px;"></rect>
        <rect x="695.071" y="550.238" width="38.778" height="18.418" style="fill:#fff;stroke:#0986be;stroke-width:5.5px;"></rect>
        <rect x="695.071" y="531.82" width="38.778" height="18.418" style="fill:#fff;stroke:#0986be;stroke-width:5.5px;"></rect>
        <rect x="695.071" y="513.434" width="38.778" height="18.418" style="fill:#fff;stroke:#0986be;stroke-width:5.5px;"></rect>
        <rect x="695.071" y="495.016" width="38.778" height="18.418" style="fill:#fff;stroke:#0986be;stroke-width:5.5px;"></rect>
        <rect x="695.071" y="476.63" width="38.778" height="18.418" style="fill:#fff;stroke:#0986be;stroke-width:5.5px;"></rect>
        <rect x="695.071" y="458.212" width="38.778" height="18.418" style="fill:#fff;stroke:#0986be;stroke-width:5.5px;"></rect>
        <rect x="695.071" y="439.826" width="38.778" height="18.418" style="fill:#fff;stroke:#0986be;stroke-width:5.5px;"></rect>
        <rect x="695.071" y="421.408" width="38.778" height="18.418" style="fill:#fff;stroke:#0986be;stroke-width:5.5px;"></rect>
        <rect x="695.071" y="403.022" width="38.778" height="18.418" style="fill:#fff;stroke:#0986be;stroke-width:5.5px;"></rect>
        <rect x="695.071" y="771.063" width="38.778" height="18.418" style="fill:#fff;stroke:#0986be;stroke-width:5.5px;"></rect>
        <rect x="695.071" y="384.603" width="38.778" height="18.418" style="fill:#fff;stroke:#0986be;stroke-width:5.5px;"></rect>
        <rect x="695.071" y="366.218" width="38.778" height="18.418" style="fill:#fff;stroke:#0986be;stroke-width:5.5px;"></rect>
        <rect x="695.071" y="347.799" width="38.778" height="18.418" style="fill:#fff;stroke:#0986be;stroke-width:5.5px;"></rect>
        <rect x="695.071" y="752.645" width="38.778" height="18.418" style="fill:#fff;stroke:#0986be;stroke-width:5.5px;"></rect>
        <rect x="695.071" y="734.259" width="38.778" height="18.418" style="fill:#fff;stroke:#0986be;stroke-width:5.5px;"></rect>
        <rect x="772.617" y="734.259" width="38.778" height="18.418" style="fill:#fff;stroke:#0986be;stroke-width:5.5px;"></rect>
        <rect x="772.617" y="771.063" width="38.778" height="18.418" style="fill:#fff;stroke:#0986be;stroke-width:5.5px;"></rect>
        <rect x="772.617" y="752.645" width="38.778" height="18.418" style="fill:#fff;stroke:#0986be;stroke-width:5.5px;"></rect>
        <rect x="811.394" y="771.063" width="38.778" height="18.418" style="fill:#fff;stroke:#0986be;stroke-width:5.5px;"></rect>
        <rect x="733.826" y="734.259" width="38.778" height="18.418" style="fill:#fff;stroke:#0986be;stroke-width:5.5px;"></rect>
        <rect x="733.826" y="715.841" width="38.778" height="18.418" style="fill:#fff;stroke:#0986be;stroke-width:5.5px;"></rect>
        <rect x="733.826" y="697.455" width="38.778" height="18.418" style="fill:#fff;stroke:#0986be;stroke-width:5.5px;"></rect>
        <rect x="733.826" y="679.037" width="38.778" height="18.418" style="fill:#fff;stroke:#0986be;stroke-width:5.5px;"></rect>
        <rect x="733.826" y="771.063" width="38.778" height="18.418" style="fill:#fff;stroke:#0986be;stroke-width:5.5px;"></rect>
        <rect x="733.826" y="752.645" width="38.778" height="18.418" style="fill:#fff;stroke:#0986be;stroke-width:5.5px;"></rect>
        <rect x="889.038" y="771.063" width="38.778" height="18.418" style="fill:#fff;stroke:#0986be;stroke-width:5.5px;"></rect>
    </g>
</svg><style>@media (prefers-color-scheme: light) { :root { filter: none; } }
@media (prefers-color-scheme: dark) { :root { filter: none; } }
</style></svg>